# xmcd
# Track frame offsets:
# 183
# 14163
# 34410
# 52525
# 74545
# 90063
# 105140
# 121753
# 137498
# 153315
# 169238
# 186758
# 223983
# 241445
# 256245
# 275683
# 289398
# 306745
#
# Disc length: 4379 seconds
# Revision: 0
# Processed by: cddbd v1.4PL0 Copyright (c) Steve Scherf et al.
# Submitted via: VisiTrax 2.9.5.180 - For more info visit www.synapsa.com
#
DISCID=05111912
DTITLE=Emmylou Harris - Trails end
DYEAR=1900
DGENRE=
TTITLE0=Two more bottles of wine
TTITLE1=Hello stranger
TTITLE2=Sweet dreams of you
TTITLE3=Send me angels
TTITLE4=Get up, John
TTITLE5=Calling my children home
TTITLE6=It's a hard life wherever you go
TTITLE7=Abraham, Martin and John
TTITLE8=One of these days
TTITLE9=The ballad of Sally Rose
TTITLE10=Born to run
TTITLE11=Luxur liner
TTITLE12=Boulder to Birmingham
TTITLE13=Save the last dance for me
TTITLE14=Leaving Louisiana in the broad daylight
TTITLE15=The boxer
TTITLE16=Cëst la vie
TTITLE17=Jambalaya
EXTD=
EXTT0=
EXTT1=
EXTT2=
EXTT3=
EXTT4=
EXTT5=
EXTT6=
EXTT7=
EXTT8=
EXTT9=
EXTT10=
EXTT11=
EXTT12=
EXTT13=
EXTT14=
EXTT15=
EXTT16=
EXTT17=
PLAYORDER=
